<?xml version="1.0" standalone="no"?>
<!DOCTYPE svg PUBLIC "-//W3C//DTD SVG 20010904//EN"
 "http://www.w3.org/TR/2001/REC-SVG-20010904/DTD/svg10.dtd">
<svg version="1.0" xmlns="http://www.w3.org/2000/svg"
 width="1000.000000pt" height="1000.000000pt" viewBox="0 0 1000.000000 1000.000000"
 preserveAspectRatio="xMidYMid meet">
<metadata>
Created by potrace 1.14, written by Peter Selinger 2001-2017
</metadata>
<g transform="translate(0.000000,1000.000000) scale(0.100000,-0.100000)"
fill="#000000" stroke="none">
<path d="M0 5000 l0 -5000 5000 0 5000 0 0 5000 0 5000 -5000 0 -5000 0 0
-5000z m5574 3531 c612 -108 977 -529 1100 -1272 96 -576 96 -1321 0 -1854
-135 -759 -495 -1220 -1069 -1368 -170 -44 -245 -52 -490 -51 -315 0 -498 33
-694 125 -400 187 -652 562 -756 1127 -99 538 -105 1334 -14 1862 152 884 593
1366 1325 1450 134 15 462 5 598 -19z m-3441 -41 c21 -6 47 -20 58 -31 19 -19
19 -53 19 -1864 l0 -1845 370 0 c419 0 413 1 449 -73 50 -103 50 -422 0 -537
-38 -88 88 -80 -1320 -80 l-1251 0 -33 33 c-52 52 -60 96 -60 317 0 219 10
267 66 315 l31 25 424 0 424 0 0 1435 c0 789 -3 1435 -6 1435 -3 0 -163 -86
-356 -191 -192 -106 -375 -202 -406 -215 -161 -66 -196 -8 -190 324 3 203 9
226 66 277 22 19 858 563 1005 654 21 13 61 27 90 31 78 13 574 5 620 -10z
m2842 -5411 c277 -51 431 -337 412 -769 -20 -453 -238 -705 -595 -687 -81 4
-102 9 -165 40 -40 20 -95 57 -124 82 -28 25 -54 45 -57 45 -3 0 -6 -143 -6
-319 l0 -319 -32 -13 c-36 -15 -243 -20 -291 -6 -16 4 -32 18 -37 33 -6 16
-10 376 -10 939 0 884 1 914 19 936 18 23 25 24 141 24 116 0 123 -1 141 -24
15 -18 19 -39 19 -103 l0 -80 71 66 c78 72 200 140 279 155 65 13 167 13 235
0z m1475 -9 c138 -31 240 -103 290 -204 54 -110 59 -169 60 -703 0 -533 3
-506 -65 -519 -19 -3 -75 -4 -125 -3 -109 5 -120 14 -120 97 l0 54 -45 -40
c-97 -85 -226 -132 -365 -132 -260 0 -436 129 -470 345 -22 136 11 261 90 348
111 122 304 177 619 177 l124 0 -6 78 c-4 42 -11 94 -17 114 -44 154 -290 170
-578 37 -98 -45 -112 -47 -138 -18 -15 17 -20 40 -22 113 -4 88 -3 94 23 125
47 55 171 105 337 137 86 16 324 13 408 -6z m2940 -5 c194 -59 323 -193 376
-390 22 -81 31 -314 14 -355 -25 -60 -28 -60 -479 -60 -225 0 -412 -4 -415 -9
-9 -14 14 -132 36 -183 73 -171 322 -214 639 -112 122 39 144 41 159 15 13
-26 13 -170 -1 -210 -18 -53 -129 -96 -325 -126 -129 -21 -330 -16 -434 11
-223 56 -359 191 -422 421 -19 67 -22 104 -22 268 0 164 3 201 22 269 34 123
85 218 157 294 94 99 201 157 337 182 78 14 293 5 358 -15z m-1337 -1 l258 -6
14 -28 c20 -40 20 -181 0 -220 -15 -30 -17 -30 -100 -30 l-85 0 23 -42 c19
-37 22 -58 22 -158 0 -109 -2 -119 -32 -182 -77 -163 -222 -250 -440 -265 -96
-6 -195 7 -245 33 -27 14 -29 13 -48 -18 -42 -69 -15 -136 62 -156 24 -6 144
-16 268 -21 126 -6 247 -17 275 -24 126 -35 215 -99 263 -192 25 -46 27 -60
27 -165 0 -110 -2 -119 -32 -181 -61 -123 -183 -210 -368 -261 -70 -19 -106
-22 -280 -22 -224 0 -320 16 -433 73 -80 40 -113 70 -147 133 -27 48 -30 62
-30 143 0 79 3 97 29 146 15 31 54 83 87 115 l58 58 -38 33 c-21 18 -49 54
-61 80 -19 40 -22 60 -18 128 5 89 22 130 87 213 l40 51 -34 51 c-53 79 -68
142 -63 274 3 100 7 118 35 179 44 92 119 169 207 213 103 50 178 64 321 59
66 -3 236 -8 378 -11z"/>
<path d="M5030 7834 c-269 -58 -428 -301 -494 -754 -55 -379 -60 -1114 -11
-1536 63 -535 205 -779 490 -839 136 -29 286 -13 402 41 75 35 197 157 240
239 75 144 130 359 160 626 14 123 17 246 17 619 1 575 -16 789 -85 1068 -82
335 -206 489 -434 537 -86 18 -199 18 -285 -1z"/>
<path d="M4673 2756 c-57 -18 -134 -77 -188 -143 l-45 -55 0 -209 0 -209 72
-76 c82 -86 136 -121 199 -130 172 -24 292 147 292 416 0 308 -130 468 -330
406z"/>
<path d="M6150 2246 c-124 -27 -183 -90 -182 -192 1 -117 87 -184 218 -171 68
7 126 38 196 105 l59 56 -3 105 -3 106 -115 2 c-63 1 -140 -4 -170 -11z"/>
<path d="M9066 2810 c-87 -34 -154 -124 -171 -225 -3 -22 -8 -50 -11 -62 l-4
-23 275 0 275 0 0 48 c0 112 -58 219 -138 254 -67 30 -164 33 -226 8z"/>
<path d="M7565 2815 c-53 -19 -111 -82 -125 -136 -19 -68 -7 -154 27 -202 74
-105 248 -117 339 -22 85 88 85 226 0 311 -61 62 -153 80 -241 49z"/>
<path d="M7456 1673 c-58 -56 -76 -91 -76 -146 0 -58 20 -92 69 -117 93 -47
281 -52 377 -11 127 55 169 183 83 255 -42 36 -83 44 -259 51 l-155 7 -39 -39z"/>
</g>
</svg>
